/* XPM */
static char * icon_xpm[] = {
"32 32 176 2",
"  	c None",
". 	c #BBC4FF",
"+ 	c #C9D2FF",
"@ 	c #D9E3FF",
"# 	c #DAE4FF",
"$ 	c #DAE3FF",
"% 	c #CCD5FE",
"& 	c #E7F1FC",
"* 	c #D9E3F2",
"= 	c #D3DDEE",
"- 	c #D2DDED",
"; 	c #D3DDED",
"> 	c #D2DCEC",
", 	c #D7E1F1",
"' 	c #E8F3FA",
") 	c #C5CEFF",
"! 	c #C7D1FF",
"~ 	c #E8F2FB",
"{ 	c #858FBF",
"] 	c #596192",
"^ 	c #555E8E",
"/ 	c #565F8E",
"( 	c #565E8E",
"_ 	c #555E8D",
": 	c #555E8C",
"< 	c #555D8C",
"[ 	c #555D8B",
"} 	c #575F8E",
"| 	c #7B84B5",
"1 	c #E4EEF9",
"2 	c #CAD4FF",
"3 	c #C6D0FF",
"4 	c #E8F2FC",
"5 	c #7982B1",
"6 	c #424A78",
"7 	c #3E4573",
"8 	c #3F4774",
"9 	c #3F4673",
"0 	c #3F4672",
"a 	c #3F4671",
"b 	c #3E4671",
"c 	c #3F4771",
"d 	c #6D76A5",
"e 	c #E5EFFA",
"f 	c #C9D3FF",
"g 	c #C4CDFF",
"h 	c #AEB7DA",
"i 	c #98A1C4",
"j 	c #969FC1",
"k 	c #969FC2",
"l 	c #969FC0",
"m 	c #959FC0",
"n 	c #A7B1D5",
"o 	c #E7F0F9",
"p 	c #C8D1FF",
"q 	c #BDC6FF",
"r 	c #DAE4FD",
"s 	c #E8F1FE",
"t 	c #E9F3FF",
"u 	c #E8F1FF",
"v 	c #DCE5FD",
"w 	c #BEC7FF",
"x 	c #CBD4FE",
"y 	c #E3ECFF",
"z 	c #E4EEFF",
"A 	c #E4EDFF",
"B 	c #CDD7FE",
"C 	c #C1CAFF",
"D 	c #E7F1FB",
"E 	c #CFD9ED",
"F 	c #C8D2E7",
"G 	c #C7D1E6",
"H 	c #C7D1E5",
"I 	c #C8D1E5",
"J 	c #CCD6EB",
"K 	c #E7F1FA",
"L 	c #C6CFFF",
"M 	c #8089B4",
"N 	c #50587E",
"O 	c #4D547A",
"P 	c #4E557A",
"Q 	c #4D5479",
"R 	c #4D5478",
"S 	c #4C5378",
"T 	c #4C5377",
"U 	c #4C5376",
"V 	c #4C5375",
"W 	c #4D5477",
"X 	c #757DA8",
"Y 	c #E3EDF9",
"Z 	c #767FA7",
"` 	c #3D4467",
" .	c #3A4062",
"..	c #3B4162",
"+.	c #3A4061",
"@.	c #3A4060",
"#.	c #3A405F",
"$.	c #3A405E",
"%.	c #39405E",
"&.	c #393F5D",
"*.	c #393F5C",
"=.	c #697199",
"-.	c #C9D4FF",
";.	c #C3CCFF",
">.	c #E8F2FA",
",.	c #B2BCD9",
"'.	c #A0A9C5",
").	c #9FA7C3",
"!.	c #9FA7C4",
"~.	c #9EA7C3",
"{.	c #9EA7C2",
"].	c #9FA8C2",
"^.	c #ADB6D4",
"/.	c #E6F0F9",
"(.	c #C7D0FF",
"_.	c #D6DFFD",
":.	c #E6F0FF",
"<.	c #E8F2FF",
"[.	c #E8F3FF",
"}.	c #E7F1FF",
"|.	c #D8E2FD",
"1.	c #CBD5FE",
"2.	c #DFE9FF",
"3.	c #E0EAFF",
"4.	c #E1EAFF",
"5.	c #CDD6FE",
"6.	c #BCC5FF",
"7.	c #D1DBEC",
"8.	c #CAD4E5",
"9.	c #C9D2E3",
"0.	c #C9D3E4",
"a.	c #C9D3E3",
"b.	c #CED8EA",
"c.	c #7B83A9",
"d.	c #49506B",
"e.	c #464C65",
"f.	c #464D66",
"g.	c #464D65",
"h.	c #464C64",
"i.	c #454C64",
"j.	c #454B63",
"k.	c #454A62",
"l.	c #6F779C",
"m.	c #E3EDF8",
"n.	c #CBD4FF",
"o.	c #6E7799",
"p.	c #33394D",
"q.	c #2F3548",
"r.	c #303549",
"s.	c #303548",
"t.	c #303547",
"u.	c #303446",
"v.	c #2F3446",
"w.	c #2F3445",
"x.	c #2F3444",
"y.	c #303546",
"z.	c #616989",
"A.	c #CAD3FF",
"B.	c #E9F3FA",
"C.	c #ACB5D2",
"D.	c #959DB6",
"E.	c #939BB3",
"F.	c #939BB2",
"G.	c #929BB2",
"H.	c #929BB1",
"I.	c #939DB4",
"J.	c #A6AFCC",
"K.	c #E7F1F8",
"L.	c #D8E1FE",
"M.	c #ECF6FF",
"N.	c #EDF7FF",
"O.	c #EEF8FF",
"P.	c #EDF8FF",
"Q.	c #ECF5FF",
"R.	c #DCE6FD",
"S.	c #BFC8FF",
"                                                                ",
"                                                                ",
"                                                                ",
"                                                                ",
"                                                                ",
"                                                                ",
"                    . . . . . . . . . . . .                     ",
"              + @ # # # # # # # # # # # # # # $ %               ",
"              & * = - ; ; ; - - - - - - > > ; , ' )             ",
"            ! ~ { ] ^ / / ( ^ _ _ _ _ : < [ } | 1 2             ",
"            3 4 5 6 7 8 8 9 9 0 0 0 0 a a b c d e f             ",
"            g ~ h i j k k k j j j l l l l m j n o p             ",
"            q r s t t t t t t t t t t t t t t u v w             ",
"            q x y z z z z z z z z z z z z z z A B q             ",
"            C D E F G G G G H H H H H H H H I J K g             ",
"            L D M N O P O O Q R S S T U U V W X Y f             ",
"            L 4 Z `  .....+.+.@.#.#.$.%.&.*.$.=.1 -.            ",
"            ;.>.,.'.).!.).).).~.~.).~.~.{.{.].^./.(.            ",
"            q _.:.<.t [.[.[.[.[.[.[.[.t t t [.}.|.w             ",
"            q 1.2.3.4.4.4.4.4.4.4.4.4.4.4.4.4.3.5.6.            ",
"            C D 7.8.9.0.0.a.0.0.0.0.a.9.9.9.0.b.>.g             ",
"            L D c.d.e.f.f.g.e.e.e.h.i.j.j.k.e.l.m.n.            ",
"            (.4 o.p.q.r.s.s.s.t.t.u.v.v.w.x.y.z.1 A.            ",
"            L B.C.D.E.E.E.E.E.E.F.F.F.G.G.H.I.J.K.+             ",
"              L.M.N.O.P.O.O.O.O.O.O.O.O.O.O.P.Q.R.              ",
"                S.S.S.S.S.S.S.S.S.S.S.S.S.S.S.S.                ",
"                    q q q q q q q q q q q q                     ",
"                                                                ",
"                                                                ",
"                                                                ",
"                                                                ",
"                                                                "};
