/* XPM */
static char *icon[] = {
/* columns rows colors chars-per-pixel */
"32 32 133 2",
"   c black",
".  c #8DFEBE59178C",
"X  c #8911BE5F2368",
"o  c #9342C06D32C5",
"O  c #8EB0C5721D73",
"+  c #93B0C5D2175F",
"@  c #916CC1E61EE5",
"#  c #9841CC081D66",
"$  c #9E79C5FF1CDA",
"%  c #9CD1CF2A1C36",
"&  c #8EBCC2642C98",
"*  c #90ECC2592343",
"=  c #93F2C3172BA9",
"-  c #9B86C58E25AC",
";  c #9ADBC6C92D43",
":  c #9C80CADE22D9",
">  c #9561C5A6351E",
",  c #9786C6A039D3",
"<  c #91C5CBEA3FA4",
"1  c #9C91C79834FF",
"2  c #9D6EC77B3B05",
"3  c #9F3FC97C3767",
"4  c #9D2BC9D63C5F",
"5  c #A169C5861ED4",
"6  c #A4C1C7CE2956",
"7  c #A614CC592D10",
"8  c #AAABCB1D2B46",
"9  c #A2CFC6F930B4",
"0  c #A4A4CB3D35E5",
"q  c #A4D0CB333A60",
"w  c #AB8BCEBF3663",
"e  c #AC50CEFE3AB0",
"r  c #ADBAD2C736C5",
"t  c #AE88D16E3A90",
"y  c #B108CE7D3A68",
"u  c #B3ADD25836C4",
"i  c #B2F5D1DA39DF",
"p  c #8C5ECB8747D4",
"a  c #8CABCE344E30",
"s  c #8EFFCE2C5357",
"d  c #9079D1124F23",
"f  c #9769CAD6480E",
"g  c #93BACE224D63",
"h  c #9EC0C78D42F4",
"j  c #9C4FCB2C40C2",
"k  c #9F3BC97B4F0A",
"l  c #93D0CF955370",
"z  c #95B3CFDF5BCE",
"x  c #9C40D0AE5CBD",
"c  c #94C5D17A54FE",
"v  c #9B3DD1E45D6F",
"b  c #9D59D0B361EE",
"n  c #9D93D305648B",
"m  c #9FBAD39169B5",
"M  c #A22EC84B4D0B",
"N  c #A618CB6B4481",
"B  c #A67FCA9E4ABB",
"V  c #AC64CB504778",
"C  c #AB2DCB534A8A",
"Z  c #A6B3CBD654FA",
"A  c #A4B4CFB55E03",
"S  c #AC41CC5254E4",
"D  c #ABD5CE8F5CBF",
"F  c #A9F9D1C842FA",
"G  c #AAE4D1905B51",
"H  c #B23CCE365A4F",
"J  c #A306D32465F6",
"K  c #A4B5D4FC6CDD",
"L  c #A939D343667A",
"P  c #AAFAD57B6E54",
"I  c #A70FD68E72CE",
"U  c #AC16D72D741A",
"Y  c #AE27D7C77AE9",
"T  c #AC1EDBA473CB",
"R  c #AED7D9547C48",
"E  c #B154D2FA6C70",
"W  c #BA5ED4F769F4",
"Q  c #B1FAD757766A",
"!  c #B48FD8147E24",
"~  c #B319DA197CBB",
"^  c #BF09D59E719E",
"/  c #BCDCDCEF7EC7",
"(  c #C78EDD2B77FF",
")  c #C3A9DAAB7ABB",
"_  c #AE17D72C80AF",
"`  c #AF68DA06837E",
"'  c #B31CD84981A6",
"]  c #B587DA99837B",
"[  c #B3E6DC8D8942",
"{  c #BB99DDEF886B",
"}  c #BB08DAB089B7",
"|  c #BE4ADD9C9285",
" . c #BC61E1A59816",
".. c #C049E3509A5D",
"X. c #C33CDE418419",
"o. c #C439DF849017",
"O. c #C9E4E0908348",
"+. c #C2F1DE4B9692",
"@. c #C86FE31B97D2",
"#. c #C660E31B9D82",
"$. c #CD1FE2639580",
"%. c #C3E9E6B6A683",
"&. c #CD2FE676A4F0",
"*. c #CD36E791AC4C",
"=. c #D06EE837B8FD",
"-. c #CFDBEA16B792",
";. c #D1A9E711ADDE",
":. c #D27DE95AA916",
">. c #DC8CE9DBAE4D",
",. c #D36AE773B544",
"<. c #D6ABE965B210",
"1. c #D5C4EC87BC25",
"2. c #DB4AED48C595",
"3. c #DE3FEF10CB36",
"4. c #DDF9EFD9D6F0",
"5. c #DF34F295CDF2",
"6. c #E612EFC6C504",
"7. c #E338EF8FCE1D",
"8. c #E59EEE32D563",
"9. c #E3D5F23BCBAD",
"0. c #E3E1F14FD214",
"q. c #E562F374DA89",
"w. c #EABEF4A7D351",
"e. c #EB85F468DCBD",
"r. c #ED0DF61EE58D",
"t. c #EDE1FADCE947",
"y. c #F675F969E78C",
"u. c #F6B1FA53EC38",
"i. c #F58FFDA1F21F",
"p. c #FC72F4C6FAAF",
"a. c #FAEAFD7FF6D2",
"s. c #FFE6FFEEFFD4",
"d. c None",
/* pixels */
"d.d.d.d.d.d.d.d.d.d.d.d.d.d.d.d.d.d.d.d.d.d.d.d.d.d.d.d.d.d.d.d.",
"d.d.d.d.d.d.d.d.d.d.d.d.d.s.s.s.s.s.s.d.d.d.d.d.d.d.d.d.d.d.d.d.",
"d.d.d.d.d.d.d.d.d.d.s.q.2.*.#.| +.+.*.3.q.s.d.d.d.d.d.d.d.d.d.d.",
"d.d.d.d.d.d.d.d.d.a.1.` K U _ R } ' Y I ] 1.a.d.d.d.d.d.d.d.d.d.",
"d.d.d.d.d.d.d.s.4.| m I R ' ' } } ] ' ~ Y K ..4.s.d.d.d.d.d.d.d.",
"d.d.d.d.d.d.s.-.I m I R ~ ~ ] ] ] } ] R R I m I -.s.d.d.d.d.d.d.",
"d.d.d.d.d.s.3.m m K U Y R ' ! ] ] ] ! ~ R U I m m 3.s.d.d.d.d.d.",
"d.d.d.d.d.r.[ n I U K ] P J Q ! ] ~ R Y U U I I n R e.d.d.d.d.d.",
"d.d.d.d.s.*.z K I U n s.s.a.,.L U ~ Q T T T K K m s %.s.d.d.d.d.",
"d.d.d.d.2.b K P U U A s.s.s.s.s.#.A P P P K K K n b s 1.d.d.d.d.",
"d.d.d.s.*.b E U U P Q s.a.a.a.s.s.s.] A J K J J n n a %.s.d.d.d.",
"d.d.d.s.R J P U U P { s.a.a.a.a.a.s.s.9.g v n J b z a m s.d.d.d.",
"d.d.d.e.U K P U Q P +.s.s.a.a.a.a.a.s.s.s.Q c v v z a z 0.d.d.d.",
"d.d.d.9.P U Q E E G ) s.u.u.u.i.a.a.a.a.s.s.T c v z a s 2.d.d.d.",
"d.d.d.5.k Z S S S V ) s.u.y.y.y.u.y.u.u.a.s.a.d c c c p 1.d.d.d.",
"d.d.d.7.Z Z S D S V W s.s.s.a.s.s.a.s.s.s.0.+ > < p c s 5.d.d.d.",
"d.d.d.t.Z M Z Z S C H s.s.s.s.s.s.s.s.s.@.O 1 2 > > & f e.d.d.d.",
"d.d.d.s.' h S S C C V s.s.s.s.s.s.s.y.9 - 0 2 > , , & P s.d.d.d.",
"d.d.d.s.,.o M C C C 0 s.s.s.s.s.s.) $ 7 q 3 3 1 3 > X &.s.d.d.d.",
"d.d.d.d.w.A 2 M B V - s.s.s.s.O.$ 6 w q e 0 4 0 2 > Z 4.d.d.d.d.",
"d.d.d.d.s.1.> q N N 9 >.6.( 6 8 e y e e w 0 q 4 1 = <.s.d.d.d.d.",
"d.d.d.d.d.s.+.o N N q 9 6 w w u e e e r w q q 3 = o.s.d.d.d.d.d.",
"d.d.d.d.d.d.8.G o 1 q V e t e r u i w e w w 3 ; D w.d.d.d.d.d.d.",
"d.d.d.d.d.d.s.9.Q o ; q e e y u u u u r q 0 - ) 6.s.d.d.d.d.d.d.",
"d.d.d.d.d.d.d.d.s.*.4 * ; w w w r r r 7 : N :.p.d.d.d.d.d.d.d.d.",
"d.d.d.d.d.d.d.d.d.s.3.! 4 O + # % % % F ) 5.s.d.d.d.d.d.d.d.d.d.",
"d.d.d.d.d.d.d.d.d.d.d.s.r.=.*.@.#.;.=.i.s.d.d.d.d.d.d.d.d.d.d.d.",
"d.d.d.d.d.d.d.d.d.d.d.d.d.d.d.d.d.d.d.d.d.d.d.d.d.d.d.d.d.d.d.d.",
"d.d.d.d.                                                d.d.d.d.",
"d.d.d.d.                                                  d.d.d.",
"d.d.d.d.d.d.d.                                    d.d.d.d.d.d.d.",
"d.d.d.d.d.d.d.d.d.d.d.d.d.d.d.d.d.d.d.d.d.d.d.d.d.d.d.d.d.d.d.d."
};
