<?xml version="1.0" encoding="UTF-8" standalone="no"?>
<!-- Created with Inkscape (http://www.inkscape.org/) -->

<svg
   xmlns:dc="http://purl.org/dc/elements/1.1/"
   xmlns:cc="http://creativecommons.org/ns#"
   xmlns:rdf="http://www.w3.org/1999/02/22-rdf-syntax-ns#"
   xmlns:svg="http://www.w3.org/2000/svg"
   xmlns="http://www.w3.org/2000/svg"
   xmlns:xlink="http://www.w3.org/1999/xlink"
   xmlns:sodipodi="http://sodipodi.sourceforge.net/DTD/sodipodi-0.dtd"
   xmlns:inkscape="http://www.inkscape.org/namespaces/inkscape"
   version="1.0"
   width="96"
   height="96"
   id="svg2"
   style="display:inline"
   inkscape:version="0.48.3.1 r9886"
   sodipodi:docname="emblem-generic.svg"
   inkscape:export-filename="/home/matsu/Icons/scalable/emblem-generic48.png"
   inkscape:export-xdpi="59.497574"
   inkscape:export-ydpi="59.497574">
  <sodipodi:namedview
     pagecolor="#ffffff"
     bordercolor="#666666"
     borderopacity="1"
     objecttolerance="10"
     gridtolerance="10"
     guidetolerance="10"
     inkscape:pageopacity="0"
     inkscape:pageshadow="2"
     inkscape:window-width="858"
     inkscape:window-height="630"
     id="namedview50"
     showgrid="false"
     inkscape:zoom="2.4583333"
     inkscape:cx="48"
     inkscape:cy="48"
     inkscape:window-x="406"
     inkscape:window-y="91"
     inkscape:window-maximized="0"
     inkscape:current-layer="svg2" />
  <defs
     id="defs4">
    <linearGradient
       x1="7.1904788"
       y1="6.9551144"
       x2="7.1904788"
       y2="18.319494"
       id="linearGradient5004"
       gradientUnits="userSpaceOnUse"
       gradientTransform="scale(1.1467263,0.8720476)">
      <stop
         id="stop5006"
         style="stop-color:#323232;stop-opacity:1"
         offset="0" />
      <stop
         id="stop5008"
         style="stop-color:#787878;stop-opacity:1"
         offset="1" />
    </linearGradient>
    <linearGradient
       x1="8"
       y1="3"
       x2="8"
       y2="19.031219"
       id="linearGradient2975"
       xlink:href="#linearGradient5004"
       gradientUnits="userSpaceOnUse"
       gradientTransform="matrix(4,0,0,4,4,-70)" />
    <clipPath
       id="clipPath2986">
      <path
         d="m -100,-74 0,96 96,0 0,-96 -96,0 z m 48,16 c 17.673112,0 32,14.326888 32,32 0,17.673112 -14.326888,32 -32,32 -17.673112,0 -32,-14.326888 -32,-32 0,-17.673112 14.326888,-32 32,-32 z m 0,8 c -13.254834,0 -24,10.745166 -24,24 0,13.254832 10.745166,24 24,24 13.254832,0 24,-10.745168 24,-24 0,-13.254834 -10.745168,-24 -24,-24 z m 0,4 c 2.216,0 4,1.784 4,4 l 0,9 7.875,-4.5 c 1.919112,-1.108 4.392,-0.419112 5.5,1.5 1.108,1.919112 0.419112,4.392 -1.5,5.5 l -7.75,4.5 7.75,4.5 c 1.919112,1.108 2.608,3.580888 1.5,5.5 -1.108,1.919112 -3.580888,2.608 -5.5,1.5 L -48,-19 l 0,9 c 0,2.216 -1.784,4 -4,4 -2.216,0 -4,-1.784 -4,-4 l 0,-9 -7.875,4.5 c -1.919112,1.108 -4.392,0.419112 -5.5,-1.5 -1.108,-1.919112 -0.419112,-4.392 1.5,-5.5 l 7.75,-4.5 -7.75,-4.5 c -1.919112,-1.108 -2.608,-3.580888 -1.5,-5.5 1.108,-1.919112 3.580888,-2.608 5.5,-1.5 l 7.875,4.5 0,-9 c 0,-2.216 1.784,-4 4,-4 z"
         inkscape:connector-curvature="0"
         id="path2988"
         style="opacity:0.3;color:#000000;fill:#ff0000;fill-opacity:1;fill-rule:nonzero;stroke:none;stroke-width:4;marker:none;visibility:visible;display:inline;overflow:visible;enable-background:accumulate" />
    </clipPath>
    <filter
       color-interpolation-filters="sRGB"
       id="filter3762">
      <feGaussianBlur
         id="feGaussianBlur3764"
         stdDeviation="0.96" />
    </filter>
    <radialGradient
       cx="48"
       cy="90.171875"
       r="42"
       fx="48"
       fy="90.171875"
       id="radialGradient3619"
       xlink:href="#linearGradient3737"
       gradientUnits="userSpaceOnUse"
       gradientTransform="matrix(1.1573129,0,0,0.99590774,-7.551021,0.1971319)" />
    <linearGradient
       id="linearGradient3737">
      <stop
         id="stop3739"
         style="stop-color:#ffffff;stop-opacity:1"
         offset="0" />
      <stop
         id="stop3741"
         style="stop-color:#ffffff;stop-opacity:0"
         offset="1" />
    </linearGradient>
    <linearGradient
       x1="36.357143"
       y1="6"
       x2="36.357143"
       y2="63.893143"
       id="linearGradient3188"
       xlink:href="#linearGradient3737"
       gradientUnits="userSpaceOnUse" />
    <linearGradient
       x1="48"
       y1="90"
       x2="48"
       y2="5.9877172"
       id="linearGradient3052"
       xlink:href="#ButtonColor-6"
       gradientUnits="userSpaceOnUse" />
    <linearGradient
       x1="45.447727"
       y1="92.539597"
       x2="45.447727"
       y2="7.0165396"
       id="ButtonShadow-0"
       gradientUnits="userSpaceOnUse"
       gradientTransform="matrix(1.0058652,0,0,0.994169,100,0)">
      <stop
         id="stop3750-8"
         style="stop-color:#000000;stop-opacity:1"
         offset="0" />
      <stop
         id="stop3752-5"
         style="stop-color:#000000;stop-opacity:0.58823532"
         offset="1" />
    </linearGradient>
    <linearGradient
       x1="32.251034"
       y1="6.1317081"
       x2="32.251034"
       y2="90.238609"
       id="linearGradient3780"
       xlink:href="#ButtonShadow-0"
       gradientUnits="userSpaceOnUse"
       gradientTransform="matrix(1.0238095,0,0,1.0119048,-1.1428571,-98.071429)" />
    <linearGradient
       x1="32.251034"
       y1="6.1317081"
       x2="32.251034"
       y2="90.238609"
       id="linearGradient3772"
       xlink:href="#ButtonShadow-0"
       gradientUnits="userSpaceOnUse"
       gradientTransform="matrix(1.0238095,0,0,1.0119048,-1.1428571,-98.071429)" />
    <linearGradient
       x1="32.251034"
       y1="6.1317081"
       x2="32.251034"
       y2="90.238609"
       id="linearGradient3725"
       xlink:href="#ButtonShadow-0"
       gradientUnits="userSpaceOnUse"
       gradientTransform="matrix(1.0238095,0,0,1.0119048,-1.1428571,-98.071429)" />
    <linearGradient
       x1="32.251034"
       y1="6.1317081"
       x2="32.251034"
       y2="90.238609"
       id="linearGradient3721"
       xlink:href="#ButtonShadow-0"
       gradientUnits="userSpaceOnUse"
       gradientTransform="translate(0,-97)" />
    <linearGradient
       x1="32.251034"
       y1="6.1317081"
       x2="32.251034"
       y2="90.238609"
       id="linearGradient3101"
       xlink:href="#ButtonShadow-0"
       gradientUnits="userSpaceOnUse"
       gradientTransform="matrix(1.0238095,0,0,1.0119048,-1.1428571,-98.071429)" />
    <clipPath
       id="clipPath3266">
      <path
         d="M 0,0 0,96 96,96 96,0 0,0 z m 12,6 72,0 c 3.324,0 6,2.676 6,6 l 0,72 c 0,3.324 -2.676,6 -6,6 L 12,90 C 8.676,90 6,87.324 6,84 L 6,12 C 6,8.676 8.676,6 12,6 z"
         inkscape:connector-curvature="0"
         id="path3268"
         style="opacity:0.3;color:#000000;fill:#ff0000;fill-opacity:1;fill-rule:nonzero;stroke:none;stroke-width:4;marker:none;visibility:visible;display:inline;overflow:visible;enable-background:accumulate" />
    </clipPath>
    <linearGradient
       x1="10.31979"
       y1="21"
       x2="10.31979"
       y2="0.99929649"
       id="ButtonColor-6"
       gradientUnits="userSpaceOnUse">
      <stop
         id="stop3189-4"
         style="stop-color:#c8c8c8;stop-opacity:1"
         offset="0" />
      <stop
         id="stop3191-0"
         style="stop-color:#e6e6e6;stop-opacity:1"
         offset="1" />
    </linearGradient>
    <linearGradient
       inkscape:collect="always"
       xlink:href="#linearGradient5004"
       id="linearGradient3027"
       gradientUnits="userSpaceOnUse"
       gradientTransform="matrix(4,0,0,4,4,-70)"
       x1="8"
       y1="3"
       x2="8"
       y2="19.031219" />
    <linearGradient
       inkscape:collect="always"
       xlink:href="#linearGradient5004"
       id="linearGradient3035"
       gradientUnits="userSpaceOnUse"
       gradientTransform="matrix(4,0,0,4,4,4)"
       x1="8"
       y1="3"
       x2="8"
       y2="19.031219" />
  </defs>
  <metadata
     id="metadata7">
    <rdf:RDF>
      <cc:Work
         rdf:about="">
        <dc:format>image/svg+xml</dc:format>
        <dc:type
           rdf:resource="http://purl.org/dc/dcmitype/StillImage" />
        <dc:title></dc:title>
      </cc:Work>
    </rdf:RDF>
  </metadata>
  <path
     style="opacity:0.2;color:#000000;fill:none;stroke:#ffffff;stroke-width:4;stroke-miterlimit:4;stroke-dasharray:none;marker:none;visibility:visible;display:inline;overflow:visible;filter:url(#filter3762);enable-background:accumulate"
     id="path2977"
     clip-path="url(#clipPath2986)"
     transform="translate(100,74)"
     inkscape:connector-curvature="0"
     d="m -52,-58 c -17.673112,0 -32,14.326888 -32,32 0,17.673112 14.326888,32 32,32 17.673112,0 32,-14.326888 32,-32 0,-17.673112 -14.326888,-32 -32,-32 z m 0,8 c 13.254832,0 24,10.745166 24,24 0,13.254832 -10.745168,24 -24,24 -13.254834,0 -24,-10.745168 -24,-24 0,-13.254834 10.745166,-24 24,-24 z m 0,4 c -2.216,0 -4,1.784 -4,4 l 0,9 -7.875,-4.5 c -1.919112,-1.108 -4.392,-0.419112 -5.5,1.5 -1.108,1.919112 -0.419112,4.392 1.5,5.5 l 7.75,4.5 -7.75,4.5 c -1.919112,1.108 -2.608,3.580888 -1.5,5.5 1.108,1.919112 3.580888,2.608 5.5,1.5 L -56,-19 l 0,9 c 0,2.216 1.784,4 4,4 2.216,0 4,-1.784 4,-4 l 0,-9 7.875,4.5 c 1.919112,1.108 4.392,0.419112 5.5,-1.5 1.108,-1.919112 0.419112,-4.392 -1.5,-5.5 l -7.75,-4.5 7.75,-4.5 c 1.919112,-1.108 2.608,-3.580888 1.5,-5.5 -1.108,-1.919112 -3.580888,-2.608 -5.5,-1.5 L -48,-33 l 0,-9 c 0,-2.216 -1.784,-4 -4,-4 z" />
  <path
     style="color:#000000;fill:url(#linearGradient3035);fill-opacity:1;stroke:none;stroke-width:1;marker:none;visibility:visible;display:inline;overflow:visible;enable-background:accumulate"
     id="path2932"
     inkscape:connector-curvature="0"
     d="M 48,16 C 30.326888,16 16,30.326888 16,48 16,65.673112 30.326888,80 48,80 65.673112,80 80,65.673112 80,48 80,30.326888 65.673112,16 48,16 z m 0,8 C 61.254832,24 72,34.745166 72,48 72,61.254832 61.254832,72 48,72 34.745166,72 24,61.254832 24,48 24,34.745166 34.745166,24 48,24 z m 0,4 c -2.216,0 -4,1.784 -4,4 l 0,9 -7.875,-4.5 c -1.919112,-1.108 -4.392,-0.419112 -5.5,1.5 -1.108,1.919112 -0.419112,4.392 1.5,5.5 l 7.75,4.5 -7.75,4.5 c -1.919112,1.108 -2.608,3.580888 -1.5,5.5 1.108,1.919112 3.580888,2.608 5.5,1.5 L 44,55 l 0,9 c 0,2.216 1.784,4 4,4 2.216,0 4,-1.784 4,-4 l 0,-9 7.875,4.5 c 1.919112,1.108 4.392,0.419112 5.5,-1.5 1.108,-1.919112 0.419112,-4.392 -1.5,-5.5 l -7.75,-4.5 7.75,-4.5 c 1.919112,-1.108 2.608,-3.580888 1.5,-5.5 -1.108,-1.919112 -3.580888,-2.608 -5.5,-1.5 L 52,41 52,32 c 0,-2.216 -1.784,-4 -4,-4 z" />
  <path
     style="opacity:0.1;color:#000000;fill:#000000;fill-opacity:1;stroke:none;stroke-width:1;marker:none;visibility:visible;display:inline;overflow:visible;enable-background:accumulate"
     id="path3766"
     inkscape:connector-curvature="0"
     d="M 48,16 C 30.326888,16 16,30.326888 16,48 16,65.673112 30.326888,80 48,80 65.673112,80 80,65.673112 80,48 80,30.326888 65.673112,16 48,16 z m 0,1.96875 C 64.604051,17.96875 78.03125,31.395949 78.03125,48 78.03125,64.604051 64.604051,78.03125 48,78.03125 31.395949,78.03125 17.96875,64.604051 17.96875,48 17.96875,31.395949 31.395949,17.96875 48,17.96875 z m 0,4.0625 C 33.676105,22.03125 22.03125,33.676105 22.03125,48 22.03125,62.323893 33.676105,73.96875 48,73.96875 62.323893,73.96875 73.96875,62.323893 73.96875,48 73.96875,33.676105 62.323893,22.03125 48,22.03125 z M 48,24 C 61.254832,24 72,34.745166 72,48 72,61.254832 61.254832,72 48,72 34.745166,72 24,61.254832 24,48 24,34.745166 34.745166,24 48,24 z m 0,4 c -2.216,0 -4,1.784 -4,4 l 0,9 -7.875,-4.5 c -1.919112,-1.108 -4.392,-0.419112 -5.5,1.5 -1.108,1.919112 -0.419112,4.392 1.5,5.5 l 7.75,4.5 -7.75,4.5 c -1.919112,1.108 -2.608,3.580888 -1.5,5.5 1.108,1.919112 3.580888,2.608 5.5,1.5 L 44,55 l 0,9 c 0,2.216 1.784,4 4,4 2.216,0 4,-1.784 4,-4 l 0,-9 7.875,4.5 c 1.919112,1.108 4.392,0.419112 5.5,-1.5 1.108,-1.919112 0.419112,-4.392 -1.5,-5.5 l -7.75,-4.5 7.75,-4.5 c 1.919112,-1.108 2.608,-3.580888 1.5,-5.5 -1.108,-1.919112 -3.580888,-2.608 -5.5,-1.5 L 52,41 52,32 c 0,-2.216 -1.784,-4 -4,-4 z m 0,1.96875 c 1.154332,0 2.03125,0.876918 2.03125,2.03125 l 0,9 a 1.9783274,1.9783274 0 0 0 2.9375,1.71875 l 7.875,-4.5 a 1.9783274,1.9783274 0 0 0 0.03125,0 c 0.974407,-0.562574 2.207994,-0.211659 2.78125,0.78125 0.562574,0.974407 0.211659,2.207994 -0.78125,2.78125 l -7.75,4.5 a 1.9783274,1.9783274 0 0 0 0,3.4375 l 7.75,4.5 c 0.992909,0.573256 1.343824,1.806843 0.78125,2.78125 -0.573256,0.992909 -1.806843,1.343824 -2.78125,0.78125 a 1.9783274,1.9783274 0 0 0 -0.03125,0 l -7.875,-4.5 A 1.9783274,1.9783274 0 0 0 50.03125,55 l 0,9 c 0,1.154332 -0.876918,2.03125 -2.03125,2.03125 -1.154332,0 -2.03125,-0.876918 -2.03125,-2.03125 l 0,-9 a 1.9783274,1.9783274 0 0 0 -2.9375,-1.71875 l -7.875,4.5 a 1.9783274,1.9783274 0 0 0 -0.03125,0 C 34.150593,58.343824 32.917006,57.992909 32.34375,57 31.781176,56.025593 32.132091,54.792006 33.125,54.21875 l 7.75,-4.5 a 1.9783274,1.9783274 0 0 0 0,-3.4375 l -7.75,-4.5 C 32.132091,41.207994 31.781176,39.974407 32.34375,39 32.917006,38.007091 34.150593,37.656176 35.125,38.21875 a 1.9783274,1.9783274 0 0 0 0.03125,0 l 7.875,4.5 A 1.9783274,1.9783274 0 0 0 45.96875,41 l 0,-9 c 0,-1.154332 0.876918,-2.03125 2.03125,-2.03125 z" />
  <path
     style="opacity:0.2;color:#000000;fill:#000000;fill-opacity:1;stroke:none;stroke-width:1;marker:none;visibility:visible;display:inline;overflow:visible;enable-background:accumulate"
     id="path4087"
     inkscape:connector-curvature="0"
     d="M 48,16 C 30.326888,16 16,30.326888 16,48 16,65.673112 30.326888,80 48,80 65.673112,80 80,65.673112 80,48 80,30.326888 65.673112,16 48,16 z m 0,1.03125 C 65.118494,17.03125 78.96875,30.881506 78.96875,48 78.96875,65.118494 65.118494,78.96875 48,78.96875 30.881506,78.96875 17.03125,65.118494 17.03125,48 17.03125,30.881506 30.881506,17.03125 48,17.03125 z m 0,5.9375 C 34.190548,22.96875 22.96875,34.190548 22.96875,48 22.96875,61.80945 34.190548,73.03125 48,73.03125 61.80945,73.03125 73.03125,61.80945 73.03125,48 73.03125,34.190548 61.80945,22.96875 48,22.96875 z M 48,24 C 61.254832,24 72,34.745166 72,48 72,61.254832 61.254832,72 48,72 34.745166,72 24,61.254832 24,48 24,34.745166 34.745166,24 48,24 z m 0,4 c -2.216,0 -4,1.784 -4,4 l 0,9 -7.875,-4.5 c -1.919112,-1.108 -4.392,-0.419112 -5.5,1.5 -1.108,1.919112 -0.419112,4.392 1.5,5.5 l 7.75,4.5 -7.75,4.5 c -1.919112,1.108 -2.608,3.580888 -1.5,5.5 1.108,1.919112 3.580888,2.608 5.5,1.5 L 44,55 l 0,9 c 0,2.216 1.784,4 4,4 2.216,0 4,-1.784 4,-4 l 0,-9 7.875,4.5 c 1.919112,1.108 4.392,0.419112 5.5,-1.5 1.108,-1.919112 0.419112,-4.392 -1.5,-5.5 l -7.75,-4.5 7.75,-4.5 c 1.919112,-1.108 2.608,-3.580888 1.5,-5.5 -1.108,-1.919112 -3.580888,-2.608 -5.5,-1.5 L 52,41 52,32 c 0,-2.216 -1.784,-4 -4,-4 z m 0,1.03125 c 1.665217,0 2.96875,1.303533 2.96875,2.96875 l 0,9 A 1.0263368,1.0263368 0 0 0 52.5,41.90625 l 7.875,-4.5 a 1.0263368,1.0263368 0 0 0 0,-0.03125 c 1.429009,-0.825039 3.29442,-0.313607 4.125,1.125 0.825039,1.429009 0.313607,3.29442 -1.125,4.125 l -7.75,4.5 a 1.0263368,1.0263368 0 0 0 0,1.75 l 7.75,4.5 c 1.438607,0.83058 1.950039,2.695991 1.125,4.125 -0.83058,1.438607 -2.695991,1.950039 -4.125,1.125 a 1.0263368,1.0263368 0 0 0 0,-0.03125 l -7.875,-4.5 A 1.0263368,1.0263368 0 0 0 50.96875,55 l 0,9 c 0,1.665217 -1.303533,2.96875 -2.96875,2.96875 -1.665217,0 -2.96875,-1.303533 -2.96875,-2.96875 l 0,-9 A 1.0263368,1.0263368 0 0 0 43.5,54.09375 l -7.875,4.5 a 1.0263368,1.0263368 0 0 0 0,0.03125 C 34.195991,59.450039 32.33058,58.938607 31.5,57.5 30.674961,56.070991 31.186393,54.20558 32.625,53.375 l 7.75,-4.5 a 1.0263368,1.0263368 0 0 0 0,-1.75 l -7.75,-4.5 C 31.186393,41.79442 30.674961,39.929009 31.5,38.5 c 0.83058,-1.438607 2.695991,-1.950039 4.125,-1.125 a 1.0263368,1.0263368 0 0 0 0,0.03125 l 7.875,4.5 A 1.0263368,1.0263368 0 0 0 45.03125,41 l 0,-9 c 0,-1.665217 1.303533,-2.96875 2.96875,-2.96875 z" />
  <path
     style="opacity:0.3;color:#000000;fill:#000000;fill-opacity:1;stroke:none;stroke-width:1;marker:none;visibility:visible;display:inline;overflow:visible;enable-background:accumulate"
     id="path4100"
     inkscape:connector-curvature="0"
     d="m 48,16 c -17.673112,0 -32,14.326888 -32,32 0,0.166668 -0.0025,0.333936 0,0.5 C 16.266707,31.057042 30.493556,17 48,17 65.506444,17 79.733293,31.057042 80,48.5 80.002539,48.333936 80,48.166668 80,48 80,30.326888 65.673112,16 48,16 z m 0,12 c -2.216,0 -4,1.784 -4,4 l 0,1 c 0,-2.216 1.784,-4 4,-4 2.216,0 4,1.784 4,4 l 0,-1 c 0,-2.216 -1.784,-4 -4,-4 z M 33.84375,35.96875 C 32.553355,36.068737 31.3175,36.800555 30.625,38 c -0.448527,0.776871 -0.602793,1.637661 -0.5,2.46875 0.06407,-0.508465 0.228531,-0.998552 0.5,-1.46875 1.108,-1.919112 3.580888,-2.608 5.5,-1.5 L 44,42 44,41 36.125,36.5 c -0.719667,-0.4155 -1.507013,-0.591242 -2.28125,-0.53125 z m 28.3125,0 C 61.382013,35.908758 60.594667,36.0845 59.875,36.5 L 52,41 l 0,1 7.875,-4.5 c 1.919112,-1.108 4.392,-0.419112 5.5,1.5 0.271469,0.470198 0.435928,0.960285 0.5,1.46875 C 65.977793,39.637661 65.823527,38.776871 65.375,38 64.6825,36.800555 63.446645,36.068737 62.15625,35.96875 z M 24,48.5 c -0.0033,0.164783 0,0.334418 0,0.5 0,13.254832 10.745166,24 24,24 13.254832,0 24,-10.745168 24,-24 0,-0.165582 0.0033,-0.335217 0,-0.5 C 71.736161,61.526062 61.08925,72 48,72 34.910748,72 24.263839,61.526062 24,48.5 z m 15,0 -6.875,4 c -1.439334,0.831 -2.183729,2.442937 -2,4 0.158807,-1.210796 0.866986,-2.345854 2,-3 L 39.875,49 39,48.5 z m 18,0 -0.875,0.5 7.75,4.5 c 1.133014,0.654146 1.841193,1.789204 2,3 0.183729,-1.557063 -0.560666,-3.169 -2,-4 L 57,48.5 z" />
  <path
     style="opacity:0.5;color:#000000;fill:#ffffff;fill-opacity:1;stroke:none;stroke-width:1;marker:none;visibility:visible;display:inline;overflow:visible;enable-background:accumulate"
     id="path4109"
     inkscape:connector-curvature="0"
     d="m 48,24 c -13.254834,0 -24,10.745166 -24,24 0,0.165582 -0.0033,0.335217 0,0.5 C 24.263839,35.473936 34.910748,25 48,25 61.08925,25 71.736161,35.473936 72,48.5 72.003338,48.335217 72,48.165582 72,48 72,34.745166 61.254832,24 48,24 z M 30.125,40.5 c -0.183729,1.557063 0.560666,3.169 2,4 l 6.875,4 0.875,-0.5 -7.75,-4.5 c -1.133014,-0.654146 -1.841193,-1.789204 -2,-3 z m 35.75,0 c -0.158807,1.210796 -0.866986,2.345854 -2,3 l -7.75,4.5 0.875,0.5 6.875,-4 c 1.439334,-0.831 2.183729,-2.442937 2,-4 z M 16,48.5 c -0.0025,0.166064 0,0.333332 0,0.5 0,17.673112 14.326888,32 32,32 17.673112,0 32,-14.326888 32,-32 0,-0.166668 0.0025,-0.333936 0,-0.5 C 79.733293,65.942958 65.506444,80 48,80 30.493556,80 16.266707,65.942958 16,48.5 z m 28,6.5 -7.875,4.5 c -1.919112,1.108 -4.392,0.419112 -5.5,-1.5 -0.271469,-0.470198 -0.435928,-0.960285 -0.5,-1.46875 -0.102793,0.831089 0.05147,1.691879 0.5,2.46875 1.108,1.919112 3.580888,2.608 5.5,1.5 L 44,56 44,55 z m 8,0 0,1 7.875,4.5 c 1.919112,1.108 4.392,0.419112 5.5,-1.5 0.448527,-0.776871 0.602793,-1.637661 0.5,-2.46875 -0.06407,0.508465 -0.228531,0.998552 -0.5,1.46875 -1.108,1.919112 -3.580888,2.608 -5.5,1.5 L 52,55 z m -8,9 0,1 c 0,2.216 1.784,4 4,4 2.216,0 4,-1.784 4,-4 l 0,-1 c 0,2.216 -1.784,4 -4,4 -2.216,0 -4,-1.784 -4,-4 z" />
</svg>
